<svg width="44" height="45" viewBox="0 0 44 45" fill="none" xmlns="http://www.w3.org/2000/svg">
<g clip-path="url(#clip0_6_146)">
<path d="M11.5241 0.000150963C7.84206 -0.0230218 6.02094 2.92529 6.1564 5.96302V39.3365L0.0251762 39.4622C-0.227404 42.0221 1.42498 44.8235 4.77451 44.8743L33.2517 45C36.9251 44.9808 39.2592 43.4678 39.4376 39.3365V5.60693C39.5255 2.70134 40.5769 0.209716 44 0.000150963H11.5241ZM21.6911 9.74844C23.8726 9.74844 25.6435 10.3633 27.0041 11.5938C28.3647 12.8242 29.0449 14.4353 29.0449 16.4264C29.0449 17.4331 28.8315 18.3388 28.4042 19.1441C27.9769 19.9495 27.1894 20.9007 26.0425 21.9969C25.2104 22.78 24.6485 23.3897 24.3561 23.8259C24.0637 24.2622 23.8724 24.76 23.7824 25.3193C23.6925 25.8562 23.4623 26.3032 23.0912 26.6612C22.7201 27.0191 22.2759 27.1979 21.7587 27.1979C21.2414 27.1979 20.7972 27.0249 20.4261 26.6781C20.0551 26.3314 19.8695 25.9005 19.8695 25.3859C19.8695 24.5134 20.0603 23.7139 20.4426 22.9869C20.8249 22.2598 21.4663 21.4932 22.3658 20.6878C23.5128 19.681 24.2719 18.9041 24.6429 18.356C25.014 17.8078 25.1996 17.2091 25.1996 16.5603C25.1996 15.5983 24.8789 14.8265 24.238 14.2449C23.597 13.6632 22.7481 13.3725 21.6911 13.3725C21.0389 13.3725 20.4486 13.5121 19.9201 13.7917C19.3916 14.0714 18.9358 14.4797 18.5534 15.0167C18.1936 15.5312 17.7048 15.8277 17.0863 15.906C16.4679 15.9843 15.9338 15.8222 15.484 15.4195C15.1692 15.1287 14.9946 14.7705 14.9609 14.3454C14.9271 13.9204 15.0338 13.5177 15.2812 13.1374C16.0009 12.0636 16.9177 11.23 18.0309 10.6372C19.1441 10.0443 20.3642 9.74844 21.6911 9.74844ZM21.6911 29.8829C22.4332 29.8829 23.0682 30.146 23.5967 30.6717C24.1252 31.1974 24.3896 31.8291 24.3896 32.5673C24.3896 33.3056 24.1252 33.9378 23.5967 34.4635C23.0682 34.9893 22.4332 35.2523 21.6911 35.2523C20.9489 35.2523 20.3134 34.9893 19.7849 34.4635C19.2564 33.9378 18.9919 33.3056 18.9919 32.5673C18.9919 31.8291 19.2564 31.1974 19.7849 30.6717C20.3134 30.146 20.9489 29.8829 21.6911 29.8829Z" fill="white"/>
</g>
<defs>
<clipPath id="clip0_6_146">
<rect width="44" height="45" fill="white"/>
</clipPath>
</defs>
</svg>
